<svg xmlns="http://www.w3.org/2000/svg" viewBox="0 0 96 96" width="96" height="96" color="#8a5a32">
    <circle cx="48" cy="48" r="46" fill="#f4eadc"/>
    <ellipse cx="48" cy="72" rx="28" ry="5" fill="#e3d4c0"/>
    <path d="M22 68 48 24l26 44a4 4 0 0 1-3 6H25a4 4 0 0 1-3-6z" fill="#c9853f"/>
    <path d="M48 24l26 44a4 4 0 0 1-3 6H48z" fill="#b3702f" opacity=".55"/>
    <g fill="#f1dcb6" opacity=".85">
        <circle cx="42" cy="56" r="4"/>
        <circle cx="55" cy="60" r="3.4"/>
        <circle cx="34" cy="66" r="3"/>
        <circle cx="48" cy="44" r="2.8"/>
        <circle cx="62" cy="68" r="2.6"/>
    </g>
    <path d="M22 68h52" fill="none" stroke="currentColor" stroke-width="3" stroke-linecap="round" opacity=".5"/>
</svg>
